<?xml version="1.0" encoding="UTF-8"?>
<svg width="38px" height="32px" viewBox="0 0 38 32" version="1.1" xmlns="http://www.w3.org/2000/svg" xmlns:xlink="http://www.w3.org/1999/xlink">
    <!-- Generator: sketchtool 41.2 (35397) - http://www.bohemiancoding.com/sketch -->
    <title>DA34EB23-3899-4AED-96DB-F11D70EEBCD5</title>
    <desc>Created with sketchtool.</desc>
    <defs>
        <radialGradient cx="44.4295247%" cy="74.2635091%" fx="44.4295247%" fy="74.2635091%" r="62.3426526%" id="radialGradient-1">
            <stop stop-color="#FFE082" offset="0%"></stop>
            <stop stop-color="#FF9A00" offset="20.0892857%"></stop>
            <stop stop-color="#FF5722" offset="38.3151307%"></stop>
            <stop stop-color="#D81B60" offset="47.2496811%"></stop>
            <stop stop-color="#C2185B" offset="56.1084981%"></stop>
            <stop stop-color="#8E24AA" offset="75.9984853%"></stop>
            <stop stop-color="#6200EA" offset="87.1591996%"></stop>
            <stop stop-color="#304FFE" offset="100%"></stop>
        </radialGradient>
        <radialGradient cx="23.1603306%" cy="87.969112%" fx="23.1603306%" fy="87.969112%" r="95.4205428%" id="radialGradient-2">
            <stop stop-color="#FFC653" offset="0%"></stop>
            <stop stop-color="#AE1C79" offset="50.5580357%"></stop>
            <stop stop-color="#9023A6" offset="100%"></stop>
        </radialGradient>
    </defs>
    <g id="Symbols" stroke="none" stroke-width="1" fill="none" fill-rule="evenodd">
        <g id="ic_instagram">
            <g>
                <rect id="Rectangle" x="0" y="0" width="38" height="32"></rect>
                <g id="#000000ff" transform="translate(11.000000, 5.000000)">
                    <path d="M4.98558824,0.537058824 C8.36970588,0.0776470588 11.8185294,0.433529412 15.2285294,0.323529412 C18.5705882,0.168235294 21.6635294,3.07676471 21.6602941,6.43176471 C21.6894118,9.47617647 21.6894118,12.5205882 21.6602941,15.565 C21.6570588,18.7938235 18.7744118,21.6667647 15.5455882,21.6602941 C12.5076471,21.6894118 9.46970588,21.6894118 6.43176471,21.6602941 C3.96323529,21.6376471 1.63382353,19.9714706 0.757058824,17.6744118 C0.223235294,16.3835294 0.326764706,14.96 0.317058824,13.5979412 C0.349411765,11.2102941 0.287941176,8.82264706 0.339705882,6.43823529 C0.349411765,3.72382353 2.36823529,1.21 4.98558824,0.537058824 L4.98558824,0.537058824 Z M5.30911765,2.47176471 C4.05382353,2.85352941 3.00882353,3.84676471 2.54941176,5.07617647 C2.17735294,6.14705882 2.27441176,7.30529412 2.25823529,8.41823529 C2.29705882,10.7961765 2.21294118,13.1773529 2.29058824,15.5552941 C2.30029412,17.7520588 4.24794118,19.6997059 6.44470588,19.7094118 C8.92941176,19.7870588 11.4205882,19.6997059 13.9085294,19.745 C15.1314706,19.7320588 16.4579412,19.8161765 17.545,19.1497059 C18.9394118,18.3829412 19.7741176,16.8041176 19.7288235,15.2252941 C19.7320588,12.3070588 19.7676471,9.38235294 19.7126471,6.46088235 C19.7029412,4.38382353 17.9655882,2.47823529 15.8852941,2.31970588 C13.8276471,2.18382353 11.7635294,2.30352941 9.70588235,2.26470588 C8.24029412,2.30352941 6.74558824,2.11588235 5.30911765,2.47176471 Z" id="Shape" fill="url(#radialGradient-1)"></path>
                    <path d="M16.2605882,4.54882353 C17.1114706,3.86941176 18.1726471,5.34794118 17.27,5.96588235 C16.3705882,6.71970588 15.2285294,5.12147059 16.2605882,4.54882353 Z" id="Shape" fill="#3A41FB"></path>
                    <path d="M9.51176471,5.37058824 C12.7891176,4.39029412 16.4773529,6.92352941 16.7782353,10.3173529 C17.2764706,13.6464706 14.355,16.9173529 10.9967647,16.8170588 C8.02029412,16.8882353 5.30588235,14.3291176 5.19264706,11.3558824 C4.96941176,8.66411765 6.89764706,6.02411765 9.51176471,5.37058824 L9.51176471,5.37058824 Z M9.84176471,7.30205882 C8.56705882,7.68382353 7.54470588,8.77411765 7.23735294,10.0682353 C6.61617647,12.2876471 8.37941176,14.7497059 10.6829412,14.8564706 C12.9832353,15.125 15.1379412,12.9670588 14.8532353,10.6635294 C14.74,8.27588235 12.0967647,6.51264706 9.84176471,7.30205882 Z" id="Shape" fill="url(#radialGradient-2)"></path>
                </g>
            </g>
        </g>
    </g>
</svg>