<?xml version="1.0" encoding="UTF-8"?>
<svg width="34px" height="32px" viewBox="0 0 34 32" version="1.1" xmlns="http://www.w3.org/2000/svg" xmlns:xlink="http://www.w3.org/1999/xlink">
    <!-- Generator: sketchtool 41.2 (35397) - http://www.bohemiancoding.com/sketch -->
    <title>79F0036D-D82B-4C55-96A8-A4C0EC76F998</title>
    <desc>Created with sketchtool.</desc>
    <defs>
        <rect id="path-1" x="0" y="0" width="22" height="22" rx="6"></rect>
        <mask id="mask-2" maskContentUnits="userSpaceOnUse" maskUnits="objectBoundingBox" x="0" y="0" width="22" height="22" fill="white">
            <use xlink:href="#path-1"></use>
        </mask>
    </defs>
    <g id="Symbols" stroke="none" stroke-width="1" fill="none" fill-rule="evenodd">
        <g id="ic_linkedin">
            <g>
                <rect id="bound" x="0" y="0" width="34" height="32"></rect>
                <g id="Group-23" transform="translate(7.000000, 5.000000)">
                    <g id="34227" transform="translate(5.000000, 5.000000)" fill="#1B86BC">
                        <g id="Capa_1">
                            <path d="M12.5432152,7.33936893 L12.5432152,11.970932 L9.85479802,11.970932 L9.85479802,7.64956311 C9.85479802,6.564 9.46594748,5.82314563 8.49282959,5.82314563 C7.74997748,5.82314563 7.30790567,6.32242718 7.11342207,6.80539806 C7.04249928,6.97805825 7.02424366,7.21837864 7.02424366,7.46006796 L7.02424366,11.970932 L4.33492247,11.970932 C4.33492247,11.970932 4.37114209,4.65195146 4.33492247,3.89365049 L7.0239812,3.89365049 L7.0239812,5.03857282 C7.01852784,5.04713592 7.0114414,5.05636893 7.00630882,5.0646699 L7.0239812,5.0646699 L7.0239812,5.03857282 C7.38124894,4.48899029 8.01929162,3.7038932 9.44742939,3.7038932 C11.2167956,3.70386408 12.5432152,4.85833981 12.5432152,7.33936893 L12.5432152,7.33936893 Z M1.52177802,0 C0.601764741,0 0,0.602708738 0,1.39529126 C0,2.17060194 0.584354828,2.79160194 1.48608333,2.79160194 L1.50404732,2.79160194 C2.44187879,2.79160194 3.02512545,2.17071845 3.02512545,1.39529126 C3.00745308,0.602708738 2.44187879,0 1.52177802,0 L1.52177802,0 Z M0.159722098,11.970932 L2.8480226,11.970932 L2.8480226,3.89365049 L0.159722098,3.89365049 L0.159722098,11.970932 L0.159722098,11.970932 Z" id="LinkedIn"></path>
                        </g>
                    </g>
                    <use id="Rectangle-13" stroke="#1B86BC" mask="url(#mask-2)" stroke-width="4" xlink:href="#path-1"></use>
                </g>
            </g>
        </g>
    </g>
</svg>